<svg width="49" height="49" viewBox="0 0 49 49" fill="none" xmlns="http://www.w3.org/2000/svg">
<path d="M14.2286 16.6284C14.4126 16.8108 14.6137 16.9019 14.8321 16.9019C15.0507 16.9019 15.2512 16.8108 15.4336 16.6284L17.9786 14.1214C18.1609 13.9498 18.2521 13.7453 18.2521 13.5079C18.2521 13.2706 18.1609 13.0608 17.9786 12.8784L15.4336 10.3714C15.2496 10.1891 15.0484 10.0979 14.8301 10.0979C14.6114 10.0979 14.4109 10.1891 14.2286 10.3714L11.6835 12.8784C11.5012 13.0501 11.41 13.2546 11.41 13.4919C11.41 13.7293 11.5012 13.9391 11.6835 14.1214L14.2286 16.6284ZM7.85755 28.7629C6.93755 28.7629 6.13988 28.4239 5.46455 27.7459C4.78888 27.0683 4.45105 26.2678 4.45105 25.3444V5.55994C4.45105 4.63994 4.78888 3.84211 5.46455 3.16644C6.13988 2.49111 6.93755 2.15344 7.85755 2.15344H41.6425C42.5659 2.15344 43.3664 2.49111 44.044 3.16644C44.722 3.84211 45.061 4.63994 45.061 5.55994V25.3444C45.061 26.2678 44.722 27.0683 44.044 27.7459C43.3664 28.4239 42.5659 28.7629 41.6425 28.7629H36.461C35.9757 28.7629 35.5769 28.5984 35.2645 28.2694C34.9519 27.9404 34.7955 27.5323 34.7955 27.0449C34.7955 26.5576 34.9592 26.1524 35.2865 25.8294C35.6139 25.5061 36.018 25.3444 36.4991 25.3444H41.6425V5.55994H7.85755V25.3444H13.001C13.482 25.3444 13.8862 25.5089 14.2135 25.8379C14.5409 26.1669 14.7046 26.5751 14.7046 27.0624C14.7046 27.5498 14.5409 27.9551 14.2135 28.2784C13.8862 28.6014 13.482 28.7629 13.001 28.7629H7.85755ZM33.753 14.2019C34.5177 14.2019 35.1667 13.9343 35.7 13.3989C36.2334 12.8639 36.5 12.2139 36.5 11.4489C36.5 10.6923 36.2324 10.0453 35.6971 9.50794C35.1617 8.97061 34.5117 8.70194 33.747 8.70194C32.9824 8.70194 32.3334 8.97161 31.8 9.51094C31.2667 10.0503 31 10.6983 31 11.4549C31 12.2196 31.2677 12.8686 31.803 13.4019C32.3384 13.9353 32.9884 14.2019 33.753 14.2019ZM12.298 46.8584C11.817 46.8584 11.4129 46.6948 11.0855 46.3674C10.7582 46.0401 10.5946 45.6361 10.5946 45.1554V42.4914C10.5946 41.2928 10.9266 40.1814 11.5906 39.1574C12.2546 38.1334 13.1339 37.3636 14.2286 36.8479C15.8742 36.0813 17.5846 35.5043 19.3596 35.1169C21.1346 34.7296 22.9314 34.5359 24.7501 34.5359C26.5687 34.5359 28.3655 34.7296 30.1405 35.1169C31.9155 35.5043 33.6259 36.0813 35.2715 36.8479C36.3672 37.3606 37.2487 38.1296 37.916 39.1549C38.5837 40.1806 38.9175 41.2928 38.9175 42.4914V45.1554C38.9175 45.6361 38.7515 46.0401 38.4196 46.3674C38.0879 46.6948 37.682 46.8584 37.202 46.8584H12.298ZM13.965 43.5359H35.535V42.3714C35.4474 41.8081 35.2109 41.2876 34.8256 40.8099C34.4405 40.3323 33.9487 39.9641 33.35 39.7054C31.9964 39.1024 30.6002 38.6439 29.1616 38.3299C27.7229 38.0156 26.2519 37.8584 24.7486 37.8584C23.2452 37.8584 21.7747 38.0156 20.3371 38.3299C18.8994 38.6439 17.5037 39.1024 16.1501 39.7054C15.5514 39.9641 15.0596 40.3323 14.6746 40.8099C14.2892 41.2876 14.0527 41.8081 13.965 42.3714V43.5359ZM24.753 32.5359C22.7701 32.5359 21.0812 31.8373 19.6866 30.4399C18.2919 29.0429 17.5946 27.3524 17.5946 25.3684C17.5946 23.3951 18.2921 21.7093 19.687 20.3109C21.0821 18.9123 22.7699 18.2129 24.7506 18.2129C26.7312 18.2129 28.4209 18.9123 29.8196 20.3109C31.2182 21.7093 31.9175 23.3971 31.9175 25.3744C31.9175 27.3514 31.2192 29.0393 29.8226 30.4379C28.4259 31.8366 26.736 32.5359 24.753 32.5359ZM24.7381 29.2129C25.8101 29.2129 26.7209 28.8421 27.4705 28.1004C28.2199 27.3588 28.5946 26.4539 28.5946 25.3859C28.5946 24.3179 28.2237 23.4093 27.4821 22.6599C26.7404 21.9106 25.8337 21.5359 24.7621 21.5359C23.6901 21.5359 22.7812 21.9074 22.0356 22.6504C21.2902 23.3931 20.9176 24.2951 20.9176 25.3564C20.9176 26.4284 21.2864 27.3393 22.0241 28.0889C22.7617 28.8383 23.6664 29.2129 24.7381 29.2129Z" fill="#040007"/>
</svg>
