<svg width="49" height="49" viewBox="0 0 49 49" fill="none" xmlns="http://www.w3.org/2000/svg">
<path d="M32.25 35.3806C35.2837 35.3806 37.8555 34.3176 39.9655 32.1915C42.0755 30.0652 43.1305 27.4939 43.1305 24.4775C43.1305 21.4609 42.0755 18.897 39.9655 16.786C37.8555 14.675 35.2837 13.6195 32.25 13.6195C31.2953 13.6195 30.3673 13.74 29.466 13.981C28.5643 14.222 27.7245 14.5664 26.9465 15.0141C28.0562 16.2887 28.934 17.7289 29.58 19.3345C30.226 20.9402 30.549 22.6629 30.549 24.5025C30.549 26.3422 30.226 28.064 29.58 29.6681C28.934 31.2721 28.0562 32.7114 26.9465 33.9861C27.7245 34.4337 28.5643 34.7781 29.466 35.0191C30.3673 35.2601 31.2953 35.3806 32.25 35.3806ZM24.25 31.8465C25.142 30.8989 25.8452 29.788 26.3595 28.514C26.8735 27.2404 27.1305 25.8982 27.1305 24.4875C27.1305 23.0769 26.8735 21.7389 26.3595 20.4735C25.8452 19.2079 25.142 18.1012 24.25 17.1535C23.358 18.1012 22.6548 19.212 22.1405 20.486C21.6265 21.7597 21.3695 23.1019 21.3695 24.5126C21.3695 25.9232 21.6265 27.2612 22.1405 28.5266C22.6548 29.7922 23.358 30.8989 24.25 31.8465ZM16.25 35.3806C17.2047 35.3806 18.1327 35.2602 19.034 35.0196C19.9357 34.7786 20.7793 34.4341 21.565 33.9861C20.4477 32.7114 19.566 31.2712 18.92 29.6656C18.274 28.0599 17.951 26.3372 17.951 24.4976C17.951 22.6579 18.274 20.9361 18.92 19.3321C19.566 17.7281 20.4477 16.2887 21.565 15.0141C20.7793 14.5661 19.9357 14.2215 19.034 13.9805C18.1327 13.7399 17.2047 13.6195 16.25 13.6195C13.2397 13.6195 10.6737 14.6744 8.552 16.784C6.43034 18.8937 5.3695 21.4567 5.3695 24.4731C5.3695 27.4897 6.43034 30.0617 8.552 32.1891C10.6737 34.3167 13.2397 35.3806 16.25 35.3806ZM16.25 38.7991C12.272 38.7991 8.89434 37.4102 6.117 34.6326C3.33967 31.8549 1.951 28.4767 1.951 24.498C1.951 20.5197 3.33967 17.1424 6.117 14.366C8.89434 11.5894 12.272 10.201 16.25 10.201C17.75 10.201 19.1737 10.4139 20.521 10.8395C21.868 11.2649 23.111 11.8695 24.25 12.6535C25.389 11.8695 26.632 11.2649 27.979 10.8395C29.3263 10.4139 30.75 10.201 32.25 10.201C36.228 10.201 39.6057 11.5899 42.383 14.3675C45.1603 17.1452 46.549 20.5234 46.549 24.5021C46.549 28.4804 45.1603 31.8577 42.383 34.6341C39.6057 37.4107 36.228 38.7991 32.25 38.7991C30.75 38.7991 29.3263 38.5862 27.979 38.1606C26.632 37.7352 25.389 37.1306 24.25 36.3465C23.111 37.1306 21.868 37.7352 20.521 38.1606C19.1737 38.5862 17.75 38.7991 16.25 38.7991Z" fill="#040007"/>
</svg>
