<svg width="49" height="49" viewBox="0 0 49 49" fill="none" xmlns="http://www.w3.org/2000/svg">
<path d="M10.1545 45.2175C9.66522 45.2175 9.25905 45.0558 8.93605 44.7325C8.61272 44.4095 8.45105 44.0033 8.45105 43.514C8.45105 43.025 8.61272 42.6168 8.93605 42.2895C9.25905 41.9625 9.66522 41.799 10.1545 41.799H39.3455C39.8349 41.799 40.243 41.9625 40.57 42.2895C40.8974 42.6168 41.061 43.025 41.061 43.514C41.061 44.0033 40.8974 44.4095 40.57 44.7325C40.243 45.0558 39.8349 45.2175 39.3455 45.2175H10.1545ZM24.85 39.127C24.626 39.127 24.4149 39.0858 24.2165 39.0035C24.0179 38.9208 23.8272 38.7881 23.6445 38.6055L18.1565 33.1055C17.8325 32.7815 17.6789 32.3933 17.6955 31.941C17.7122 31.4883 17.8865 31.1 18.2185 30.776C18.5425 30.4443 18.9307 30.2803 19.383 30.284C19.8357 30.288 20.224 30.452 20.548 30.776L23.2185 33.4965V15.4915L20.498 18.212C20.166 18.544 19.784 18.71 19.352 18.71C18.9204 18.71 18.5425 18.544 18.2185 18.212C17.8865 17.888 17.7205 17.4998 17.7205 17.0475C17.7205 16.5948 17.8865 16.2065 18.2185 15.8825L23.6445 10.3945C23.8272 10.2118 24.0179 10.0791 24.2165 9.99647C24.4149 9.91414 24.626 9.87297 24.85 9.87297C25.074 9.87297 25.2852 9.91414 25.4836 9.99647C25.6822 10.0791 25.8729 10.2118 26.0555 10.3945L31.5435 15.8825C31.8675 16.2145 32.0295 16.5983 32.0295 17.034C32.0295 17.47 31.8635 17.85 31.5315 18.174C31.2075 18.5056 30.8194 18.6696 30.367 18.666C29.9144 18.662 29.526 18.494 29.202 18.162L26.4815 15.4915V33.4965L29.202 30.776C29.534 30.452 29.9244 30.2963 30.373 30.309C30.8214 30.322 31.2075 30.4943 31.5315 30.826C31.8635 31.15 32.0295 31.5383 32.0295 31.991C32.0295 32.4433 31.8635 32.8315 31.5315 33.1555L26.0555 38.6055C25.8729 38.7881 25.6822 38.9208 25.4836 39.0035C25.2852 39.0858 25.074 39.127 24.85 39.127ZM10.1545 7.18897C9.66522 7.18897 9.25905 7.02747 8.93605 6.70447C8.61272 6.38114 8.45105 5.97497 8.45105 5.48597C8.45105 4.99663 8.61272 4.59047 8.93605 4.26747C9.25905 3.94413 9.66522 3.78247 10.1545 3.78247H39.3455C39.8349 3.78247 40.243 3.94413 40.57 4.26747C40.8974 4.59047 41.061 4.99663 41.061 5.48597C41.061 5.97497 40.8974 6.38114 40.57 6.70447C40.243 7.02747 39.8349 7.18897 39.3455 7.18897H10.1545Z" fill="#040007"/>
</svg>
