<svg width="49" height="49" viewBox="0 0 49 49" fill="none" xmlns="http://www.w3.org/2000/svg">
<path d="M7.00851 44.775C6.29417 44.775 5.72301 44.4883 5.29501 43.915C4.86734 43.342 4.74867 42.6981 4.93901 41.9835C5.50567 39.7995 5.92434 37.6155 6.19501 35.4315C6.46567 33.2475 6.64234 31.0388 6.72501 28.8055C5.22501 28.3068 4.05834 27.402 3.22501 26.091C2.39167 24.7796 1.97501 23.316 1.97501 21.7V20.4955C1.97501 19.8745 2.14051 19.3198 2.47151 18.8315C2.80284 18.3431 3.25834 17.9956 3.83801 17.789C7.30767 16.397 10.5622 14.6733 13.6015 12.618C16.6412 10.5626 19.5577 8.31281 22.351 5.86847C22.6323 5.63647 22.9302 5.46247 23.2445 5.34647C23.5592 5.23081 23.8943 5.17297 24.25 5.17297C24.6057 5.17297 24.9408 5.23081 25.2555 5.34647C25.5698 5.46247 25.8677 5.63647 26.149 5.86847C28.9423 8.31281 31.8588 10.5626 34.8985 12.618C37.9378 14.6733 41.1963 16.397 44.674 17.789C45.2457 17.9956 45.6972 18.3431 46.0285 18.8315C46.3595 19.3198 46.525 19.8745 46.525 20.4955V21.7C46.525 23.2826 46.1167 24.738 45.3 26.066C44.4833 27.3936 43.325 28.3068 41.825 28.8055C41.8997 31.0388 42.064 33.2558 42.318 35.4565C42.572 37.6571 42.9863 39.8328 43.561 41.9835C43.7513 42.6981 43.641 43.342 43.23 43.915C42.8187 44.4883 42.2558 44.775 41.5415 44.775H7.00851ZM9.70201 18.7H38.798C36.1233 17.3666 33.5903 15.8396 31.199 14.119C28.8077 12.3983 26.4913 10.5506 24.25 8.57597C22.042 10.584 19.7277 12.4316 17.307 14.119C14.8863 15.8063 12.3513 17.3333 9.70201 18.7ZM29.4 25.95C30.4667 25.95 31.3333 25.525 32 24.675C32.6667 23.825 33 22.8333 33 21.7H25.75C25.75 22.8333 26.0917 23.825 26.775 24.675C27.4583 25.525 28.3333 25.95 29.4 25.95ZM19.15 25.95C20.2167 25.95 21.0833 25.525 21.75 24.675C22.4167 23.825 22.75 22.8333 22.75 21.7H15.5C15.5 22.8333 15.8417 23.825 16.525 24.675C17.2083 25.525 18.0833 25.95 19.15 25.95ZM8.90001 25.95C9.96667 25.95 10.8333 25.525 11.5 24.675C12.1667 23.825 12.5 22.8333 12.5 21.7H5.25001C5.25001 22.8333 5.59167 23.825 6.27501 24.675C6.95834 25.525 7.83334 25.95 8.90001 25.95ZM8.48801 41.5H15.138C15.5047 39.3333 15.7733 37.175 15.944 35.025C16.1147 32.875 16.2667 30.7 16.4 28.5C15.9333 28.3 15.5 28.027 15.1 27.681C14.7 27.335 14.3833 26.9286 14.15 26.462C13.5833 27.0953 12.95 27.6183 12.25 28.031C11.55 28.4436 10.8 28.7333 10 28.9C9.90001 31.0333 9.73767 33.1416 9.51301 35.225C9.28834 37.3083 8.94667 39.4 8.48801 41.5ZM18.25 41.5H30.3C30 39.392 29.7687 37.288 29.606 35.188C29.4433 33.088 29.312 30.9713 29.212 28.838C28.1787 28.7793 27.2017 28.523 26.281 28.069C25.3603 27.615 24.6333 26.938 24.1 26.038C23.6333 26.9046 22.9667 27.5733 22.1 28.044C21.2333 28.5146 20.3167 28.7793 19.35 28.838C19.2167 30.9713 19.075 33.088 18.925 35.188C18.775 37.288 18.55 39.392 18.25 41.5ZM33.362 41.5H40.074C39.6073 39.4 39.2533 37.3083 39.012 35.225C38.7707 33.1416 38.6167 31.0333 38.55 28.9C37.7833 28.7333 37.0687 28.4436 36.406 28.031C35.7433 27.6183 35.162 27.0953 34.662 26.462C34.3287 26.9206 33.962 27.325 33.562 27.675C33.162 28.025 32.6953 28.3 32.162 28.5C32.2953 30.7 32.46 32.875 32.656 35.025C32.852 37.175 33.0873 39.3333 33.362 41.5ZM39.65 25.95C40.7167 25.95 41.5833 25.525 42.25 24.675C42.9167 23.825 43.25 22.8333 43.25 21.7H36C36 22.8333 36.3417 23.825 37.025 24.675C37.7083 25.525 38.5833 25.95 39.65 25.95Z" fill="#040007"/>
</svg>
